<mxfile host="app.diagrams.net" modified="2022-05-19T00:56:16.374Z" agent="5.0 (Windows NT 10.0; Win64; x64) AppleWebKit/537.36 (KHTML, like Gecko) Chrome/101.0.0.0 Safari/537.36" etag="kSw8t6ywpJfwxIU-d9ne" version="18.0.6" type="github">
  <diagram id="kgpKYQtTHZ0yAKxKKP6v" name="Page-1">
    <mxGraphModel dx="1422" dy="762" grid="1" gridSize="10" guides="1" tooltips="1" connect="1" arrows="1" fold="1" page="1" pageScale="1" pageWidth="850" pageHeight="1100" math="0" shadow="0">
      <root>
        <mxCell id="0" />
        <mxCell id="1" parent="0" />
        <mxCell id="3nuBFxr9cyL0pnOWT2aG-1" value="APP" style="shape=umlLifeline;perimeter=lifelinePerimeter;container=1;collapsible=0;recursiveResize=0;rounded=0;shadow=0;strokeWidth=1;" parent="1" vertex="1">
          <mxGeometry x="290" y="90" width="100" height="300" as="geometry" />
        </mxCell>
        <mxCell id="3nuBFxr9cyL0pnOWT2aG-4" value="" style="points=[];perimeter=orthogonalPerimeter;rounded=0;shadow=0;strokeWidth=1;" parent="3nuBFxr9cyL0pnOWT2aG-1" vertex="1">
          <mxGeometry x="50" y="120" width="10" height="50" as="geometry" />
        </mxCell>
        <mxCell id="o7EJX53soIwEPVJFv9a2-25" value="" style="points=[];perimeter=orthogonalPerimeter;rounded=0;shadow=0;strokeWidth=1;" vertex="1" parent="3nuBFxr9cyL0pnOWT2aG-1">
          <mxGeometry x="45" y="212" width="10" height="50" as="geometry" />
        </mxCell>
        <mxCell id="3nuBFxr9cyL0pnOWT2aG-5" value="API" style="shape=umlLifeline;perimeter=lifelinePerimeter;container=1;collapsible=0;recursiveResize=0;rounded=0;shadow=0;strokeWidth=1;" parent="1" vertex="1">
          <mxGeometry x="650" y="90" width="100" height="300" as="geometry" />
        </mxCell>
        <mxCell id="3nuBFxr9cyL0pnOWT2aG-6" value="" style="points=[];perimeter=orthogonalPerimeter;rounded=0;shadow=0;strokeWidth=1;" parent="3nuBFxr9cyL0pnOWT2aG-5" vertex="1">
          <mxGeometry x="45" y="60" width="15" height="60" as="geometry" />
        </mxCell>
        <mxCell id="o7EJX53soIwEPVJFv9a2-16" value="" style="points=[];perimeter=orthogonalPerimeter;rounded=0;shadow=0;strokeWidth=1;" vertex="1" parent="3nuBFxr9cyL0pnOWT2aG-5">
          <mxGeometry x="46" y="170" width="15" height="40" as="geometry" />
        </mxCell>
        <mxCell id="o7EJX53soIwEPVJFv9a2-2" value="" style="shape=umlLifeline;participant=umlActor;perimeter=lifelinePerimeter;whiteSpace=wrap;html=1;container=1;collapsible=0;recursiveResize=0;verticalAlign=top;spacingTop=36;outlineConnect=0;" vertex="1" parent="1">
          <mxGeometry x="210" y="80" width="20" height="300" as="geometry" />
        </mxCell>
        <mxCell id="3nuBFxr9cyL0pnOWT2aG-3" value="Click btnShowGrid" style="verticalAlign=bottom;startArrow=oval;endArrow=block;startSize=8;shadow=0;strokeWidth=1;" parent="1" edge="1" source="o7EJX53soIwEPVJFv9a2-2">
          <mxGeometry relative="1" as="geometry">
            <mxPoint x="275" y="160" as="sourcePoint" />
            <mxPoint x="335" y="160" as="targetPoint" />
            <Array as="points">
              <mxPoint x="280" y="160" />
            </Array>
          </mxGeometry>
        </mxCell>
        <mxCell id="o7EJX53soIwEPVJFv9a2-4" value="Ờ màn hình 1" style="text;html=1;align=center;verticalAlign=middle;resizable=0;points=[];autosize=1;strokeColor=none;fillColor=none;" vertex="1" parent="1">
          <mxGeometry x="110" y="150" width="90" height="20" as="geometry" />
        </mxCell>
        <mxCell id="3nuBFxr9cyL0pnOWT2aG-10" value="http status code: 200, type: 0 " style="verticalAlign=bottom;endArrow=open;dashed=1;endSize=8;shadow=0;strokeWidth=1;entryX=1;entryY=0.013;entryDx=0;entryDy=0;entryPerimeter=0;" parent="1" source="3nuBFxr9cyL0pnOWT2aG-5" target="3nuBFxr9cyL0pnOWT2aG-4" edge="1">
          <mxGeometry relative="1" as="geometry">
            <mxPoint x="410" y="267" as="targetPoint" />
            <Array as="points">
              <mxPoint x="550" y="210" />
            </Array>
          </mxGeometry>
        </mxCell>
        <mxCell id="o7EJX53soIwEPVJFv9a2-7" value="&lt;font style=&quot;font-size: 10px;&quot;&gt;Hiển thị màn hình 2&lt;/font&gt;" style="text;html=1;align=center;verticalAlign=middle;resizable=0;points=[];autosize=1;strokeColor=none;fillColor=none;" vertex="1" parent="1">
          <mxGeometry x="350" y="220" width="100" height="20" as="geometry" />
        </mxCell>
        <mxCell id="o7EJX53soIwEPVJFv9a2-10" value="click btnExportExcel" style="text;html=1;align=center;verticalAlign=middle;resizable=0;points=[];autosize=1;strokeColor=none;fillColor=none;fontSize=10;" vertex="1" parent="1">
          <mxGeometry x="222" y="229" width="100" height="20" as="geometry" />
        </mxCell>
        <mxCell id="o7EJX53soIwEPVJFv9a2-14" value="" style="endArrow=classic;html=1;rounded=0;fontSize=10;exitX=0;exitY=1.05;exitDx=0;exitDy=0;exitPerimeter=0;" edge="1" parent="1">
          <mxGeometry width="50" height="50" relative="1" as="geometry">
            <mxPoint x="222" y="263" as="sourcePoint" />
            <mxPoint x="340" y="263" as="targetPoint" />
          </mxGeometry>
        </mxCell>
        <mxCell id="o7EJX53soIwEPVJFv9a2-17" value="Ờ màn hình 1" style="text;html=1;align=center;verticalAlign=middle;resizable=0;points=[];autosize=1;strokeColor=none;fillColor=none;" vertex="1" parent="1">
          <mxGeometry x="120" y="240" width="90" height="20" as="geometry" />
        </mxCell>
        <mxCell id="o7EJX53soIwEPVJFv9a2-18" value="" style="endArrow=classic;html=1;rounded=0;fontSize=10;exitX=0;exitY=1.05;exitDx=0;exitDy=0;exitPerimeter=0;startArrow=none;" edge="1" parent="1" source="o7EJX53soIwEPVJFv9a2-21" target="3nuBFxr9cyL0pnOWT2aG-5">
          <mxGeometry width="50" height="50" relative="1" as="geometry">
            <mxPoint x="341" y="159.5" as="sourcePoint" />
            <mxPoint x="459" y="159.5" as="targetPoint" />
          </mxGeometry>
        </mxCell>
        <mxCell id="o7EJX53soIwEPVJFv9a2-19" value="" style="endArrow=classic;html=1;rounded=0;fontSize=10;exitX=0;exitY=1.05;exitDx=0;exitDy=0;exitPerimeter=0;" edge="1" parent="1">
          <mxGeometry width="50" height="50" relative="1" as="geometry">
            <mxPoint x="341" y="263.5" as="sourcePoint" />
            <mxPoint x="699.5" y="263.5" as="targetPoint" />
          </mxGeometry>
        </mxCell>
        <mxCell id="o7EJX53soIwEPVJFv9a2-20" value="&lt;span style=&quot;font-family: &amp;quot;Times New Roman&amp;quot;, serif;&quot;&gt;&lt;font style=&quot;font-size: 11px;&quot;&gt;URI: /switching/payment-exchange/v1/report/all/export&lt;/font&gt;&lt;/span&gt;" style="text;html=1;align=center;verticalAlign=middle;resizable=0;points=[];autosize=1;strokeColor=none;fillColor=none;fontSize=10;" vertex="1" parent="1">
          <mxGeometry x="360" y="243" width="260" height="20" as="geometry" />
        </mxCell>
        <mxCell id="o7EJX53soIwEPVJFv9a2-21" value="&lt;span style=&quot;font-family: &amp;quot;Times New Roman&amp;quot;, serif;&quot;&gt;&lt;font style=&quot;font-size: 11px;&quot;&gt;URI: /switching/payment-exchange/v1/report/all/export&lt;/font&gt;&lt;/span&gt;" style="text;html=1;align=center;verticalAlign=middle;resizable=0;points=[];autosize=1;strokeColor=none;fillColor=none;fontSize=10;" vertex="1" parent="1">
          <mxGeometry x="370" y="140" width="260" height="20" as="geometry" />
        </mxCell>
        <mxCell id="o7EJX53soIwEPVJFv9a2-22" value="" style="endArrow=none;html=1;rounded=0;fontSize=10;exitX=0;exitY=1.05;exitDx=0;exitDy=0;exitPerimeter=0;" edge="1" parent="1" target="o7EJX53soIwEPVJFv9a2-21">
          <mxGeometry width="50" height="50" relative="1" as="geometry">
            <mxPoint x="341" y="159.5" as="sourcePoint" />
            <mxPoint x="699.5" y="159.5" as="targetPoint" />
          </mxGeometry>
        </mxCell>
        <mxCell id="o7EJX53soIwEPVJFv9a2-23" value="http status code: 200, type: 1 " style="verticalAlign=bottom;endArrow=open;dashed=1;endSize=8;shadow=0;strokeWidth=1;entryX=1;entryY=0.013;entryDx=0;entryDy=0;entryPerimeter=0;" edge="1" parent="1">
          <mxGeometry relative="1" as="geometry">
            <mxPoint x="349" y="301.65" as="targetPoint" />
            <mxPoint x="698.5" y="301" as="sourcePoint" />
            <Array as="points">
              <mxPoint x="549" y="301" />
            </Array>
          </mxGeometry>
        </mxCell>
        <mxCell id="o7EJX53soIwEPVJFv9a2-26" value="&lt;span style=&quot;font-size: 10px;&quot;&gt;Hiển thị file Excel&lt;/span&gt;" style="text;html=1;align=center;verticalAlign=middle;resizable=0;points=[];autosize=1;strokeColor=none;fillColor=none;" vertex="1" parent="1">
          <mxGeometry x="345" y="320" width="90" height="20" as="geometry" />
        </mxCell>
      </root>
    </mxGraphModel>
  </diagram>
</mxfile>
